<svg width="135" height="21" viewBox="0 0 135 21" fill="none" xmlns="http://www.w3.org/2000/svg">
<path d="M11.082 16.1454C11.9512 16.1454 12.7401 16.0178 13.4487 15.7628C14.1667 15.5077 14.7005 15.2573 15.05 15.0117L16.864 18.6112C16.4199 18.9891 15.6594 19.3717 14.5824 19.7591C13.5148 20.1464 12.2441 20.3401 10.7703 20.3401C9.39091 20.3401 8.09659 20.0992 6.8873 19.6174C5.67801 19.1355 4.61043 18.46 3.68456 17.5909C2.76815 16.7122 2.04541 15.6872 1.51634 14.5157C0.996722 13.3347 0.736913 12.0546 0.736913 10.6752C0.736913 9.29587 0.996722 8.01572 1.51634 6.83477C2.03596 5.64437 2.75398 4.60986 3.67039 3.73123C4.59626 2.85261 5.66384 2.17238 6.87313 1.69055C8.09187 1.19927 9.39091 0.953637 10.7703 0.953637C12.2441 0.953637 13.5148 1.14731 14.5824 1.53466C15.6594 1.92202 16.4199 2.30464 16.864 2.68255L15.05 6.28208C14.7005 6.027 14.1667 5.77664 13.4487 5.531C12.7401 5.27591 11.9512 5.14837 11.082 5.14837C10.1184 5.14837 9.27754 5.29953 8.55953 5.60186C7.84151 5.89473 7.24159 6.30098 6.75976 6.8206C6.27793 7.34022 5.91892 7.92597 5.68273 8.57785C5.44654 9.22974 5.32845 9.91469 5.32845 10.6327C5.32845 11.3602 5.44654 12.0546 5.68273 12.7159C5.91892 13.3678 6.27793 13.9535 6.75976 14.4732C7.24159 14.9928 7.84151 15.4037 8.55953 15.7061C9.27754 15.9989 10.1184 16.1454 11.082 16.1454ZM23.2562 10.6327C23.2562 11.7003 23.4734 12.6687 23.908 13.5378C24.3521 14.3976 24.9614 15.0825 25.7361 15.5927C26.5203 16.1029 27.4273 16.358 28.4571 16.358C29.4868 16.358 30.3891 16.1029 31.1638 15.5927C31.9479 15.0825 32.5573 14.3976 32.9919 13.5378C33.4359 12.6687 33.658 11.7003 33.658 10.6327C33.658 9.56513 33.4359 8.60147 32.9919 7.74174C32.5573 6.88201 31.9479 6.19706 31.1638 5.68689C30.3891 5.16727 29.4868 4.90746 28.4571 4.90746C27.4273 4.90746 26.5203 5.16727 25.7361 5.68689C24.9614 6.19706 24.3521 6.88201 23.908 7.74174C23.4734 8.60147 23.2562 9.56513 23.2562 10.6327ZM18.8488 10.6327C18.8488 9.27225 19.0898 8.00627 19.5716 6.83477C20.0534 5.65382 20.7289 4.62403 21.5981 3.7454C22.4673 2.86678 23.4876 2.18183 24.6591 1.69055C25.8306 1.19927 27.0966 0.953637 28.4571 0.953637C29.8364 0.953637 31.1071 1.19927 32.2692 1.69055C33.4407 2.18183 34.4563 2.86678 35.316 3.7454C36.1852 4.62403 36.856 5.65382 37.3284 6.83477C37.8102 8.00627 38.0511 9.27225 38.0511 10.6327C38.0511 12.0026 37.8196 13.278 37.3567 14.459C36.8938 15.6305 36.2324 16.6603 35.3727 17.5483C34.513 18.427 33.4974 19.1119 32.3258 19.6032C31.1543 20.0945 29.8647 20.3401 28.4571 20.3401C27.021 20.3401 25.7125 20.0945 24.5316 19.6032C23.3601 19.1119 22.3492 18.427 21.4989 17.5483C20.6486 16.6603 19.992 15.6305 19.5291 14.459C19.0756 13.278 18.8488 12.0026 18.8488 10.6327ZM40.5222 1.29375H46.1483C48.1417 1.29375 49.7903 1.69527 51.0941 2.49832C52.4073 3.29192 53.3899 4.39256 54.0417 5.80026C54.6936 7.20795 55.0196 8.81876 55.0196 10.6327C55.0196 12.4561 54.6936 14.0716 54.0417 15.4793C53.3899 16.887 52.4073 17.9924 51.0941 18.7954C49.7903 19.5985 48.1417 20 46.1483 20H40.5222V1.29375ZM44.7453 5.04917V16.2446H45.7656C46.8332 16.2446 47.7166 16.0037 48.4157 15.5218C49.1148 15.0306 49.6392 14.3645 49.9887 13.5237C50.3477 12.6734 50.5272 11.7192 50.5272 10.661C50.5272 9.59347 50.3525 8.63926 50.0029 7.79842C49.6628 6.94814 49.1384 6.27736 48.4299 5.78609C47.7213 5.29481 46.8332 5.04917 45.7656 5.04917H44.7453ZM57.502 1.29375H69.4485V5.00666H61.7251V8.81876H69.3776V12.4183H61.7251V16.2871H69.4485V20H57.502V1.29375ZM99.3028 20H94.2152L91.0408 6.94814H91.8061L88.6317 20H83.5158L79.2502 1.29375H84.111L86.3643 14.4165H86.3076L89.8221 1.29375H93.0107L96.5393 14.4165H96.4827L98.7359 1.29375H103.597L99.3028 20ZM106.078 1.29375H118.024V5.00666H110.301V8.81876H117.953V12.4183H110.301V16.2871H118.024V20H106.078V1.29375ZM121.331 1.29375H127.751C128.819 1.29375 129.806 1.44019 130.713 1.73306C131.629 2.02594 132.366 2.50777 132.924 3.17855C133.49 3.83988 133.774 4.7374 133.774 5.87111C133.774 6.61747 133.632 7.28353 133.349 7.86928C133.075 8.45503 132.706 8.93686 132.243 9.31476C131.79 9.68322 131.294 9.92886 130.755 10.0517C131.228 10.1084 131.686 10.2454 132.13 10.4626C132.583 10.6705 132.99 10.9634 133.349 11.3413C133.717 11.7097 134.005 12.1727 134.213 12.7301C134.43 13.278 134.539 13.9299 134.539 14.6857C134.539 15.7344 134.303 16.6603 133.83 17.4633C133.368 18.2569 132.687 18.8805 131.79 19.3339C130.902 19.778 129.811 20 128.516 20H121.331V1.29375ZM125.569 16.613H127.496C128.101 16.613 128.592 16.5233 128.97 16.3438C129.357 16.1548 129.64 15.8903 129.82 15.5502C129.999 15.2006 130.089 14.7849 130.089 14.3031C130.089 13.5473 129.853 12.9946 129.381 12.645C128.918 12.286 128.266 12.1065 127.425 12.1065H125.569V16.613ZM125.569 8.79042H127.283C127.784 8.79042 128.2 8.70067 128.53 8.52117C128.871 8.34166 129.126 8.0913 129.296 7.77008C129.475 7.43941 129.565 7.06151 129.565 6.63637C129.565 5.87111 129.348 5.35622 128.913 5.09169C128.478 4.81771 127.883 4.68072 127.127 4.68072H125.569V8.79042Z" fill="#56D4FD"/>
</svg>
