<svg width="156" height="71" viewBox="0 0 156 71" fill="none" xmlns="http://www.w3.org/2000/svg">
<path d="M52.4663 70.9922C50.7093 70.9922 49.2043 69.6592 49.0263 67.8742C48.8373 65.9782 50.2173 64.2872 52.1103 64.0892C52.2273 64.0762 57.1913 63.4682 59.5453 60.0702C60.9613 58.0262 61.2193 55.1812 60.3133 51.6152C58.6883 45.2192 59.2673 40.1712 62.0363 36.6112C62.3523 36.2042 62.6843 35.8342 63.0273 35.4962C62.6853 35.1582 62.3533 34.7882 62.0363 34.3812C59.2673 30.8212 58.6883 25.7732 60.3133 19.3772C61.2193 15.8112 60.9613 12.9672 59.5453 10.9222C57.1753 7.50023 52.1593 6.90822 52.1093 6.90322C50.2073 6.71422 48.8283 5.01921 49.0173 3.11721C49.2063 1.21521 50.9113 -0.171765 52.8133 0.0172354C53.1443 0.0502354 60.9693 0.894236 65.1913 6.91824C67.8353 10.6902 68.4513 15.4552 67.0213 21.0812C65.9733 25.2052 66.1273 28.3202 67.4663 30.0882C68.8463 31.9102 71.3413 32.0292 71.4633 32.0342C73.3573 32.0542 74.8873 33.5952 74.8873 35.4942C74.8873 37.3932 73.3573 38.9352 71.4633 38.9552C71.3403 38.9602 68.8463 39.0792 67.4663 40.9012C66.1273 42.6692 65.9733 45.7842 67.0213 49.9082C68.4513 55.5342 67.8353 60.2992 65.1913 64.0712C60.9693 70.0952 53.1443 70.9392 52.8133 70.9722C52.6973 70.9862 52.5813 70.9922 52.4663 70.9922Z" fill="#6DD9B6"/>
<path d="M22.422 70.9894C22.307 70.9894 22.192 70.9834 22.075 70.9724C21.744 70.9394 13.919 70.0954 9.69598 64.0714C7.05198 60.2984 6.436 55.5334 7.866 49.9084C8.914 45.7844 8.75999 42.6694 7.42099 40.9014C6.04099 39.0794 3.54598 38.9604 3.42398 38.9554C1.52998 38.9354 0 37.3944 0 35.4944C0 33.5954 1.52898 32.0534 3.42398 32.0344C3.54698 32.0294 6.04099 31.9104 7.42099 30.0884C8.75999 28.3204 8.914 25.2054 7.866 21.0814C6.436 15.4554 7.05198 10.6904 9.69598 6.91839C13.919 0.893387 21.743 0.0503866 22.075 0.0173866C23.977 -0.172613 25.672 1.21637 25.862 3.11837C26.051 5.01437 24.671 6.70537 22.778 6.90337C22.665 6.91637 17.698 7.52239 15.343 10.9224C13.927 12.9664 13.669 15.8114 14.575 19.3774C16.201 25.7734 15.621 30.8214 12.852 34.3814C12.536 34.7884 12.204 35.1584 11.861 35.4964C12.203 35.8344 12.535 36.2044 12.852 36.6114C15.621 40.1714 16.2 45.2194 14.575 51.6154C13.664 55.1984 13.93 58.0544 15.365 60.1014C17.747 63.4994 22.712 64.0824 22.761 64.0874C24.663 64.2764 26.051 65.9724 25.862 67.8744C25.684 69.6564 24.179 70.9894 22.422 70.9894Z" fill="#6DD9B6"/>
<path d="M34.0638 49.2251C33.1078 49.2251 32.1568 48.8321 31.4728 48.0601C30.2048 46.6301 30.3368 44.4421 31.7668 43.1751L40.4278 35.4971L31.7668 27.8191C30.3368 26.5511 30.2048 24.3641 31.4728 22.9331C32.7408 21.5031 34.9278 21.3711 36.3578 22.6391L47.9398 32.9071C48.6808 33.5641 49.1048 34.5071 49.1048 35.4971C49.1048 36.4871 48.6808 37.4301 47.9398 38.0871L36.3578 48.3551C35.6998 48.9371 34.8798 49.2251 34.0638 49.2251Z" fill="#6DD9B6"/>
<path d="M113.522 31.0614H109.404C109.287 30.3862 109.071 29.7881 108.755 29.267C108.439 28.7386 108.047 28.291 107.577 27.924C107.107 27.5571 106.572 27.2818 105.97 27.0984C105.375 26.9076 104.733 26.8121 104.043 26.8121C102.818 26.8121 101.732 27.1204 100.785 27.7369C99.8381 28.346 99.0968 29.2414 98.5611 30.4229C98.0253 31.5972 97.7575 33.032 97.7575 34.7273C97.7575 36.4519 98.0253 37.9051 98.5611 39.0866C99.1042 40.2609 99.8454 41.1489 100.785 41.7507C101.732 42.3452 102.814 42.6424 104.032 42.6424C104.708 42.6424 105.339 42.5543 105.926 42.3782C106.52 42.1947 107.052 41.9268 107.522 41.5746C107.999 41.2223 108.399 40.7893 108.722 40.2756C109.052 39.7618 109.28 39.1747 109.404 38.5142L113.522 38.5362C113.368 39.6077 113.034 40.6132 112.52 41.5526C112.013 42.492 111.349 43.3213 110.527 44.0405C109.705 44.7524 108.744 45.3101 107.643 45.7138C106.542 46.1101 105.32 46.3082 103.977 46.3082C101.996 46.3082 100.227 45.8496 98.6712 44.9322C97.1153 44.0148 95.8897 42.6901 94.9943 40.9581C94.099 39.2261 93.6513 37.1491 93.6513 34.7273C93.6513 32.2981 94.1026 30.2211 95.0053 28.4964C95.908 26.7644 97.1373 25.4397 98.6932 24.5224C100.249 23.605 102.01 23.1463 103.977 23.1463C105.232 23.1463 106.399 23.3224 107.478 23.6747C108.557 24.027 109.518 24.5444 110.362 25.2269C111.206 25.9021 111.9 26.7314 112.443 27.7148C112.993 28.6909 113.353 29.8065 113.522 31.0614ZM129.514 29.6523C129.412 28.6909 128.979 27.9424 128.215 27.4066C127.459 26.8709 126.476 26.603 125.265 26.603C124.414 26.603 123.683 26.7314 123.074 26.9883C122.465 27.2451 121.999 27.5937 121.676 28.0341C121.353 28.4744 121.188 28.9772 121.181 29.5423C121.181 30.012 121.287 30.4193 121.5 30.7642C121.72 31.1091 122.017 31.4027 122.392 31.6449C122.766 31.8797 123.181 32.0779 123.636 32.2393C124.091 32.4008 124.549 32.5366 125.012 32.6467L127.125 33.1751C127.977 33.3732 128.795 33.6411 129.58 33.9787C130.373 34.3163 131.081 34.742 131.705 35.2557C132.336 35.7694 132.835 36.3896 133.202 37.1161C133.569 37.8427 133.753 38.694 133.753 39.6701C133.753 40.9911 133.415 42.1544 132.74 43.1598C132.065 44.1579 131.089 44.9395 129.812 45.5046C128.542 46.0624 127.004 46.3413 125.199 46.3413C123.445 46.3413 121.922 46.0697 120.63 45.5266C119.346 44.9835 118.341 44.1909 117.614 43.1488C116.895 42.1067 116.506 40.837 116.447 39.3398H120.465C120.524 40.1251 120.766 40.7783 121.192 41.2994C121.618 41.8204 122.172 42.2094 122.854 42.4663C123.544 42.7231 124.315 42.8516 125.166 42.8516C126.054 42.8516 126.832 42.7195 127.5 42.4553C128.175 42.1837 128.703 41.8094 129.085 41.3324C129.467 40.848 129.661 40.2829 129.668 39.6371C129.661 39.05 129.489 38.5656 129.151 38.1839C128.813 37.795 128.34 37.4721 127.731 37.2152C127.129 36.951 126.425 36.7161 125.617 36.5107L123.052 35.8501C121.196 35.3731 119.728 34.6502 118.649 33.6815C117.577 32.7054 117.042 31.41 117.042 29.7955C117.042 28.4671 117.401 27.3039 118.12 26.3058C118.847 25.3076 119.834 24.5334 121.082 23.983C122.329 23.4252 123.742 23.1463 125.32 23.1463C126.92 23.1463 128.322 23.4252 129.525 23.983C130.736 24.5334 131.687 25.3003 132.377 26.2837C133.066 27.2598 133.422 28.3827 133.444 29.6523H129.514ZM149.646 29.6523C149.543 28.6909 149.11 27.9424 148.347 27.4066C147.591 26.8709 146.608 26.603 145.397 26.603C144.546 26.603 143.815 26.7314 143.206 26.9883C142.597 27.2451 142.131 27.5937 141.808 28.0341C141.485 28.4744 141.32 28.9772 141.313 29.5423C141.313 30.012 141.419 30.4193 141.632 30.7642C141.852 31.1091 142.149 31.4027 142.524 31.6449C142.898 31.8797 143.313 32.0779 143.768 32.2393C144.223 32.4008 144.681 32.5366 145.144 32.6467L147.257 33.1751C148.109 33.3732 148.927 33.6411 149.712 33.9787C150.505 34.3163 151.213 34.742 151.837 35.2557C152.468 35.7694 152.967 36.3896 153.334 37.1161C153.701 37.8427 153.884 38.694 153.884 39.6701C153.884 40.9911 153.547 42.1544 152.872 43.1598C152.196 44.1579 151.22 44.9395 149.943 45.5046C148.674 46.0624 147.136 46.3413 145.331 46.3413C143.577 46.3413 142.054 46.0697 140.762 45.5266C139.478 44.9835 138.472 44.1909 137.746 43.1488C137.027 42.1067 136.638 40.837 136.579 39.3398H140.597C140.656 40.1251 140.898 40.7783 141.324 41.2994C141.749 41.8204 142.303 42.2094 142.986 42.4663C143.676 42.7231 144.446 42.8516 145.298 42.8516C146.186 42.8516 146.964 42.7195 147.632 42.4553C148.307 42.1837 148.835 41.8094 149.217 41.3324C149.598 40.848 149.793 40.2829 149.8 39.6371C149.793 39.05 149.62 38.5656 149.283 38.1839C148.945 37.795 148.472 37.4721 147.863 37.2152C147.261 36.951 146.556 36.7161 145.749 36.5107L143.184 35.8501C141.327 35.3731 139.86 34.6502 138.781 33.6815C137.709 32.7054 137.173 31.41 137.173 29.7955C137.173 28.4671 137.533 27.3039 138.252 26.3058C138.979 25.3076 139.966 24.5334 141.214 23.983C142.461 23.4252 143.874 23.1463 145.452 23.1463C147.052 23.1463 148.454 23.4252 149.657 23.983C150.868 24.5334 151.818 25.3003 152.508 26.2837C153.198 27.2598 153.554 28.3827 153.576 29.6523H149.646Z" fill="#6DD9B6"/>
</svg>
