<svg width="160" height="51" viewBox="0 0 160 51" fill="none" xmlns="http://www.w3.org/2000/svg">
<path d="M12.638 28.7054L9.99698 26.5584L31.159 9.35238C32.816 8.00538 33.067 5.56938 31.72 3.91238C30.372 2.25538 27.937 2.00438 26.28 3.35138L1.427 23.5584C0.524002 24.2924 0 25.3944 0 26.5594C0 27.7244 0.524002 28.8254 1.427 29.5604L7.759 34.7084C8.476 35.2914 9.33898 35.5754 10.196 35.5754C11.32 35.5754 12.435 35.0874 13.199 34.1474C14.547 32.4884 14.295 30.0524 12.638 28.7054Z" fill="#6DD9B6"/>
<path d="M65.9279 23.5573L58.776 17.7423C57.119 16.3953 54.683 16.6462 53.336 18.3032C51.989 19.9602 52.24 22.3963 53.897 23.7433L57.358 26.5573L36.196 43.7632C34.539 45.1102 34.2879 47.5463 35.6349 49.2033C36.3989 50.1433 37.514 50.6313 38.638 50.6313C39.495 50.6313 40.358 50.3472 41.075 49.7642L65.9279 29.5573C66.8309 28.8233 67.356 27.7203 67.356 26.5563C67.356 25.3923 66.8309 24.2913 65.9279 23.5573Z" fill="#6DD9B6"/>
<path d="M44.026 2.73333C42.063 1.89133 39.789 2.80033 38.947 4.76233L22.351 43.4503C21.509 45.4133 22.418 47.6863 24.38 48.5293C24.877 48.7423 25.394 48.8433 25.903 48.8433C27.403 48.8433 28.83 47.9653 29.459 46.4993L46.055 7.81134C46.897 5.84934 45.989 3.57533 44.026 2.73333Z" fill="#6DD9B6"/>
<path d="M73.3384 30V7.35753H76.0802V17.4405H88.1533V7.35753H90.8951V30H88.1533V19.8728H76.0802V30H73.3384ZM95.1461 9.78982V7.35753H112.128V9.78982H105.008V30H102.266V9.78982H95.1461ZM116.36 7.35753H119.632L127.327 26.1525H127.592L135.287 7.35753H138.56V30H135.995V12.797H135.774L128.698 30H126.221L119.146 12.797H118.925V30H116.36V7.35753ZM144.057 30V7.35753H146.799V27.5677H157.324V30H144.057Z" fill="#6DD9B6"/>
<path d="M67.4754 40.9536L66.349 36.8341H66.8559L67.7168 40.1893H67.757L68.634 36.8341H69.1972L70.0742 40.1893H70.1144L70.9753 36.8341H71.4822L70.3558 40.9536H69.8409L68.9317 37.6709H68.8995L67.9903 40.9536H67.4754ZM72.1038 40.9536V36.8341H74.59V37.2766H72.6026V38.6686H74.4612V39.1111H72.6026V40.5111H74.6221V40.9536H72.1038ZM75.4891 40.9536V36.8341H76.9293C77.2163 36.8341 77.4529 36.8837 77.6393 36.983C77.8257 37.0809 77.9645 37.2129 78.0557 37.3792C78.1469 37.5442 78.1925 37.7272 78.1925 37.9284C78.1925 38.1054 78.161 38.2515 78.098 38.3669C78.0363 38.4822 77.9545 38.5734 77.8526 38.6404C77.752 38.7075 77.6427 38.7571 77.5247 38.7893V38.8295C77.6507 38.8375 77.7775 38.8818 77.9049 38.9623C78.0322 39.0427 78.1389 39.158 78.2247 39.3082C78.3105 39.4584 78.3534 39.6421 78.3534 39.8594C78.3534 40.0659 78.3065 40.2516 78.2126 40.4166C78.1187 40.5815 77.9706 40.7122 77.7681 40.8088C77.5656 40.9053 77.3021 40.9536 76.9776 40.9536H75.4891ZM75.9879 40.5111H76.9776C77.3034 40.5111 77.5347 40.4481 77.6715 40.322C77.8096 40.1946 77.8787 40.0404 77.8787 39.8594C77.8787 39.7199 77.8432 39.5912 77.7721 39.4732C77.701 39.3538 77.5998 39.2586 77.4684 39.1875C77.337 39.1151 77.1814 39.0789 77.0017 39.0789H75.9879V40.5111ZM75.9879 38.6444H76.9132C77.0634 38.6444 77.1988 38.6149 77.3195 38.5559C77.4415 38.4969 77.5381 38.4138 77.6092 38.3065C77.6816 38.1992 77.7178 38.0732 77.7178 37.9284C77.7178 37.7473 77.6548 37.5938 77.5287 37.4677C77.4027 37.3403 77.2029 37.2766 76.9293 37.2766H75.9879V38.6444ZM80.7662 40.9536V36.8341H82.1581C82.4813 36.8341 82.7455 36.8925 82.9506 37.0091C83.1571 37.1244 83.31 37.2807 83.4092 37.4778C83.5085 37.6749 83.5581 37.8948 83.5581 38.1376C83.5581 38.3803 83.5085 38.6009 83.4092 38.7993C83.3114 38.9978 83.1598 39.156 82.9547 39.274C82.7495 39.3907 82.4866 39.449 82.1662 39.449H81.1685V39.0065H82.1501C82.3713 39.0065 82.549 38.9683 82.6831 38.8919C82.8172 38.8154 82.9144 38.7122 82.9748 38.5821C83.0365 38.4507 83.0673 38.3025 83.0673 38.1376C83.0673 37.9726 83.0365 37.8251 82.9748 37.695C82.9144 37.565 82.8165 37.463 82.6811 37.3893C82.5457 37.3142 82.366 37.2766 82.142 37.2766H81.265V40.9536H80.7662ZM84.3617 40.9536V36.8341H85.7536C86.0754 36.8341 86.3396 36.8891 86.5461 36.9991C86.7526 37.1077 86.9055 37.2572 87.0047 37.4476C87.104 37.638 87.1536 37.8546 87.1536 38.0973C87.1536 38.34 87.104 38.5553 87.0047 38.743C86.9055 38.9307 86.7533 39.0783 86.5481 39.1855C86.343 39.2915 86.0808 39.3444 85.7617 39.3444H84.6352V38.8939H85.7456C85.9655 38.8939 86.1425 38.8617 86.2766 38.7973C86.412 38.733 86.5099 38.6418 86.5703 38.5238C86.632 38.4044 86.6628 38.2623 86.6628 38.0973C86.6628 37.9324 86.632 37.7882 86.5703 37.6649C86.5086 37.5415 86.41 37.4463 86.2746 37.3792C86.1391 37.3108 85.9601 37.2766 85.7375 37.2766H84.8605V40.9536H84.3617ZM86.3007 39.1031L87.3145 40.9536H86.7352L85.7375 39.1031H86.3007ZM91.4607 38.8939C91.4607 39.3283 91.3822 39.7038 91.2253 40.0203C91.0684 40.3368 90.8532 40.5808 90.5796 40.7525C90.3061 40.9241 89.9936 41.0099 89.6423 41.0099C89.2909 41.0099 88.9785 40.9241 88.7049 40.7525C88.4314 40.5808 88.2162 40.3368 88.0593 40.0203C87.9024 39.7038 87.8239 39.3283 87.8239 38.8939C87.8239 38.4594 87.9024 38.0839 88.0593 37.7674C88.2162 37.451 88.4314 37.2069 88.7049 37.0353C88.9785 36.8636 89.2909 36.7778 89.6423 36.7778C89.9936 36.7778 90.3061 36.8636 90.5796 37.0353C90.8532 37.2069 91.0684 37.451 91.2253 37.7674C91.3822 38.0839 91.4607 38.4594 91.4607 38.8939ZM90.9779 38.8939C90.9779 38.5372 90.9182 38.2361 90.7989 37.9907C90.6809 37.7453 90.5206 37.5596 90.3181 37.4335C90.117 37.3075 89.8917 37.2445 89.6423 37.2445C89.3929 37.2445 89.1669 37.3075 88.9644 37.4335C88.7633 37.5596 88.603 37.7453 88.4837 37.9907C88.3657 38.2361 88.3067 38.5372 88.3067 38.8939C88.3067 39.2506 88.3657 39.5516 88.4837 39.797C88.603 40.0424 88.7633 40.2281 88.9644 40.3542C89.1669 40.4802 89.3929 40.5433 89.6423 40.5433C89.8917 40.5433 90.117 40.4802 90.3181 40.3542C90.5206 40.2281 90.6809 40.0424 90.7989 39.797C90.9182 39.5516 90.9779 39.2506 90.9779 38.8939ZM95.1155 38.1215C95.0712 37.986 95.0129 37.8647 94.9405 37.7574C94.8694 37.6488 94.7843 37.5562 94.685 37.4798C94.5872 37.4034 94.4758 37.345 94.3511 37.3048C94.2264 37.2646 94.0896 37.2445 93.9408 37.2445C93.6967 37.2445 93.4748 37.3075 93.275 37.4335C93.0752 37.5596 92.9163 37.7453 92.7983 37.9907C92.6803 38.2361 92.6213 38.5372 92.6213 38.8939C92.6213 39.2506 92.6809 39.5516 92.8003 39.797C92.9196 40.0424 93.0812 40.2281 93.2851 40.3542C93.4889 40.4802 93.7182 40.5433 93.973 40.5433C94.209 40.5433 94.4168 40.493 94.5965 40.3924C94.7776 40.2905 94.9184 40.147 95.0189 39.962C95.1209 39.7756 95.1718 39.5563 95.1718 39.3042L95.3247 39.3364H94.0856V38.8939H95.6546V39.3364C95.6546 39.6757 95.5822 39.9707 95.4373 40.2214C95.2938 40.4722 95.0954 40.6666 94.8419 40.8048C94.5898 40.9415 94.3002 41.0099 93.973 41.0099C93.6082 41.0099 93.2877 40.9241 93.0115 40.7525C92.7366 40.5808 92.522 40.3368 92.3678 40.0203C92.215 39.7038 92.1385 39.3283 92.1385 38.8939C92.1385 38.568 92.1821 38.275 92.2693 38.0149C92.3578 37.7534 92.4825 37.5308 92.6434 37.347C92.8043 37.1633 92.9947 37.0225 93.2147 36.9246C93.4346 36.8267 93.6766 36.7778 93.9408 36.7778C94.158 36.7778 94.3605 36.8107 94.5483 36.8764C94.7373 36.9407 94.9056 37.0326 95.0531 37.1519C95.202 37.2699 95.326 37.4114 95.4253 37.5764C95.5245 37.74 95.5929 37.9217 95.6304 38.1215H95.1155ZM96.5089 40.9536V36.8341H97.9009C98.2227 36.8341 98.4869 36.8891 98.6934 36.9991C98.8999 37.1077 99.0528 37.2572 99.152 37.4476C99.2512 37.638 99.3009 37.8546 99.3009 38.0973C99.3009 38.34 99.2512 38.5553 99.152 38.743C99.0528 38.9307 98.9006 39.0783 98.6954 39.1855C98.4902 39.2915 98.2281 39.3444 97.9089 39.3444H96.7825V38.8939H97.8928C98.1128 38.8939 98.2898 38.8617 98.4239 38.7973C98.5593 38.733 98.6572 38.6418 98.7175 38.5238C98.7792 38.4044 98.8101 38.2623 98.8101 38.0973C98.8101 37.9324 98.7792 37.7882 98.7175 37.6649C98.6559 37.5415 98.5573 37.4463 98.4219 37.3792C98.2864 37.3108 98.1074 37.2766 97.8848 37.2766H97.0078V40.9536H96.5089ZM98.448 39.1031L99.4618 40.9536H98.8825L97.8848 39.1031H98.448ZM100.301 40.9536H99.7781L101.291 36.8341H101.806L103.318 40.9536H102.795L101.564 37.4858H101.532L100.301 40.9536ZM100.494 39.3444H102.602V39.787H100.494V39.3444ZM103.96 36.8341H104.555L105.955 40.2536H106.004L107.404 36.8341H107.999V40.9536H107.532V37.8238H107.492L106.205 40.9536H105.754L104.467 37.8238H104.427V40.9536H103.96V36.8341ZM108.999 36.8341H109.595L110.995 40.2536H111.043L112.443 36.8341H113.038V40.9536H112.572V37.8238H112.531L111.244 40.9536H110.793L109.506 37.8238H109.466V40.9536H108.999V36.8341ZM114.537 36.8341V40.9536H114.038V36.8341H114.537ZM118.804 36.8341V40.9536H118.321L116.077 37.7192H116.036V40.9536H115.537V36.8341H116.02L118.273 40.0766H118.313V36.8341H118.804ZM122.618 38.1215C122.574 37.986 122.516 37.8647 122.443 37.7574C122.372 37.6488 122.287 37.5562 122.188 37.4798C122.09 37.4034 121.979 37.345 121.854 37.3048C121.729 37.2646 121.592 37.2445 121.444 37.2445C121.2 37.2445 120.978 37.3075 120.778 37.4335C120.578 37.5596 120.419 37.7453 120.301 37.9907C120.183 38.2361 120.124 38.5372 120.124 38.8939C120.124 39.2506 120.184 39.5516 120.303 39.797C120.422 40.0424 120.584 40.2281 120.788 40.3542C120.992 40.4802 121.221 40.5433 121.476 40.5433C121.712 40.5433 121.92 40.493 122.099 40.3924C122.28 40.2905 122.421 40.147 122.522 39.962C122.624 39.7756 122.675 39.5563 122.675 39.3042L122.828 39.3364H121.588V38.8939H123.157V39.3364C123.157 39.6757 123.085 39.9707 122.94 40.2214C122.797 40.4722 122.598 40.6666 122.345 40.8048C122.093 40.9415 121.803 41.0099 121.476 41.0099C121.111 41.0099 120.791 40.9241 120.514 40.7525C120.239 40.5808 120.025 40.3368 119.871 40.0203C119.718 39.7038 119.641 39.3283 119.641 38.8939C119.641 38.568 119.685 38.275 119.772 38.0149C119.861 37.7534 119.985 37.5308 120.146 37.347C120.307 37.1633 120.498 37.0225 120.717 36.9246C120.937 36.8267 121.179 36.7778 121.444 36.7778C121.661 36.7778 121.863 36.8107 122.051 36.8764C122.24 36.9407 122.408 37.0326 122.556 37.1519C122.705 37.2699 122.829 37.4114 122.928 37.5764C123.027 37.74 123.096 37.9217 123.133 38.1215H122.618Z" fill="#6DD9B6"/>
</svg>
