<svg width="133" height="65" viewBox="0 0 133 65" fill="none" xmlns="http://www.w3.org/2000/svg">
<path d="M65.7412 64.0256C64.111 64.0256 62.7147 62.7889 62.5495 61.1327C62.3742 59.3736 63.6545 57.8047 65.41 57.6209C65.5148 57.6089 69.9349 57.0661 72.0243 54.0489C73.2797 52.2359 73.507 49.7058 72.6998 46.5299C71.2301 40.7477 71.7571 36.1811 74.2659 32.9541C74.5313 32.6136 74.8087 32.3 75.0945 32.0133C74.8087 31.7257 74.5313 31.413 74.2659 31.0725C71.7571 27.8465 71.2301 23.2789 72.6998 17.4968C73.5107 14.3042 73.2769 11.7647 72.0049 9.94899C69.8885 6.92989 65.4703 6.41124 65.4267 6.40661C63.662 6.23125 62.3742 4.65769 62.5495 2.89299C62.7249 1.12829 64.2984 -0.158598 66.0631 0.015831C66.3628 0.045521 73.4411 0.809113 77.2637 6.2628C79.6584 9.679 80.2169 13.9906 78.9245 19.0778C77.9818 22.7862 78.1247 25.5706 79.3364 27.1293C80.5602 28.7038 82.7675 28.8012 82.7888 28.8012C84.5619 28.8012 86 30.2384 86 32.0124C86 33.7734 84.5814 35.2041 82.825 35.2236C82.7155 35.2282 80.5175 35.3349 79.3067 36.9353C78.1229 38.5006 77.9902 41.271 78.9245 44.948C80.2169 50.0352 79.6584 54.3467 77.2637 57.7629C73.4411 63.2166 66.3628 63.9792 66.0631 64.0098C65.9555 64.0201 65.8479 64.0256 65.7412 64.0256Z" fill="#6DD9B6"/>
<path d="M20.9455 64.0258C20.8388 64.0258 20.7312 64.0203 20.6235 64.01C20.3239 63.9804 13.2456 63.2168 9.42298 57.7631C7.0283 54.3469 6.46975 50.0353 7.76312 44.9481C8.69743 41.2712 8.56568 38.5008 7.38087 36.9355C6.17007 35.3351 3.97208 35.2284 3.8626 35.2238C2.10532 35.2043 0.687622 33.7745 0.687622 32.0126C0.687622 30.2516 2.10625 28.8209 3.8626 28.8023C3.97208 28.7977 6.17007 28.691 7.38087 27.0905C8.56568 25.5253 8.69743 22.7549 7.76312 19.0789C6.46975 13.9917 7.02922 9.68013 9.42298 6.26392C13.2456 0.810239 20.3239 0.0475753 20.6235 0.0169574C22.3882 -0.158399 23.9609 1.12942 24.1372 2.89412C24.3125 4.65325 23.0331 6.22216 21.2767 6.40586C21.1728 6.41793 16.7518 6.9607 14.6623 9.97795C13.407 11.7909 13.1797 14.321 13.9869 17.4969C15.4565 23.2791 14.9296 27.8458 12.4207 31.0727C12.1554 31.4132 11.878 31.7268 11.5922 32.0135C11.878 32.3011 12.1554 32.6138 12.4207 32.9543C14.9296 36.1803 15.4565 40.7479 13.9869 46.5301C13.1797 49.706 13.407 52.2361 14.6623 54.0491C16.7666 57.0876 21.2331 57.6165 21.2776 57.6211C23.0423 57.7965 24.3218 59.3692 24.1455 61.1339C23.9804 62.79 22.5757 64.0258 20.9455 64.0258Z" fill="#6DD9B6"/>
<path d="M64.3857 22.2861H25.36C23.587 22.2861 22.1489 20.8489 22.1489 19.0749C22.1489 17.3019 23.586 15.8638 25.36 15.8638H64.3857C66.1587 15.8638 67.5968 17.301 67.5968 19.0749C67.5968 20.8489 66.1587 22.2861 64.3857 22.2861Z" fill="#6DD9B6"/>
<path d="M33.7725 36.2849H25.3591C23.5861 36.2849 22.1479 34.8477 22.1479 33.0737C22.1479 31.3007 23.5851 29.8625 25.3591 29.8625H33.7725C35.5456 29.8625 36.9837 31.2997 36.9837 33.0737C36.9837 34.8468 35.5465 36.2849 33.7725 36.2849Z" fill="#6DD9B6"/>
<path d="M64.3857 36.2849H44.0953C42.3223 36.2849 40.8842 34.8477 40.8842 33.0737C40.8842 31.3007 42.3213 29.8625 44.0953 29.8625H64.3857C66.1587 29.8625 67.5968 31.2997 67.5968 33.0737C67.5968 34.8468 66.1587 36.2849 64.3857 36.2849Z" fill="#6DD9B6"/>
<path d="M45.3674 50.2839H25.3591C23.5861 50.2839 22.1479 48.8467 22.1479 47.0727C22.1479 45.2997 23.5851 43.8616 25.3591 43.8616H45.3674C47.1404 43.8616 48.5785 45.2988 48.5785 47.0727C48.5785 48.8458 47.1404 50.2839 45.3674 50.2839Z" fill="#6DD9B6"/>
<path d="M106.119 18.4545H110.17V34.3068C110.162 35.7599 109.854 37.0112 109.245 38.0607C108.636 39.1029 107.785 39.9065 106.691 40.4716C105.605 41.0294 104.339 41.3082 102.893 41.3082C101.572 41.3082 100.383 41.0734 99.3263 40.6037C98.2769 40.1267 97.4439 39.4221 96.8274 38.4901C96.2109 37.558 95.9027 36.3984 95.9027 35.0114H99.9648C99.9722 35.6205 100.104 36.1452 100.361 36.5856C100.625 37.0259 100.989 37.3635 101.451 37.5984C101.913 37.8332 102.445 37.9506 103.047 37.9506C103.7 37.9506 104.254 37.8149 104.71 37.5433C105.165 37.2644 105.509 36.8535 105.744 36.3104C105.987 35.7673 106.111 35.0994 106.119 34.3068V18.4545ZM126.853 24.6523C126.75 23.6909 126.317 22.9424 125.554 22.4066C124.798 21.8709 123.815 21.603 122.604 21.603C121.753 21.603 121.022 21.7314 120.413 21.9883C119.804 22.2451 119.338 22.5937 119.015 23.0341C118.692 23.4744 118.527 23.9772 118.52 24.5423C118.52 25.012 118.626 25.4193 118.839 25.7642C119.059 26.1091 119.356 26.4027 119.731 26.6449C120.105 26.8797 120.52 27.0779 120.975 27.2393C121.43 27.4008 121.888 27.5366 122.351 27.6467L124.464 28.1751C125.316 28.3732 126.134 28.6411 126.919 28.9787C127.712 29.3163 128.42 29.742 129.044 30.2557C129.675 30.7694 130.174 31.3896 130.541 32.1161C130.908 32.8427 131.091 33.694 131.091 34.6701C131.091 35.9911 130.754 37.1544 130.079 38.1598C129.403 39.1579 128.427 39.9395 127.15 40.5046C125.881 41.0624 124.343 41.3413 122.538 41.3413C120.784 41.3413 119.261 41.0697 117.969 40.5266C116.685 39.9835 115.68 39.1909 114.953 38.1488C114.234 37.1067 113.845 35.837 113.786 34.3398H117.804C117.863 35.1251 118.105 35.7783 118.531 36.2994C118.956 36.8204 119.51 37.2094 120.193 37.4663C120.883 37.7231 121.653 37.8516 122.505 37.8516C123.393 37.8516 124.171 37.7195 124.839 37.4553C125.514 37.1837 126.042 36.8094 126.424 36.3324C126.805 35.848 127 35.2829 127.007 34.6371C127 34.05 126.827 33.5656 126.49 33.1839C126.152 32.795 125.679 32.4721 125.07 32.2152C124.468 31.951 123.763 31.7161 122.956 31.5107L120.391 30.8501C118.534 30.3731 117.067 29.6502 115.988 28.6815C114.916 27.7054 114.381 26.41 114.381 24.7955C114.381 23.4671 114.74 22.3039 115.459 21.3058C116.186 20.3076 117.173 19.5334 118.421 18.983C119.668 18.4252 121.081 18.1463 122.659 18.1463C124.259 18.1463 125.661 18.4252 126.864 18.983C128.075 19.5334 129.026 20.3003 129.715 21.2837C130.405 22.2598 130.761 23.3827 130.783 24.6523H126.853Z" fill="#6DD9B6"/>
</svg>
