<svg width="117" height="117" viewBox="0 0 117 117" fill="none" xmlns="http://www.w3.org/2000/svg">
<path d="M56.5141 2.80493L50.191 16.5989L56.5141 29.9179" stroke="#ABDAFF" stroke-width="5.42" stroke-miterlimit="10" stroke-linecap="round"/>
<path d="M62.2271 43.4738L68.55 29.6798L62.2271 16.3608" stroke="white" stroke-width="5.42" stroke-miterlimit="10" stroke-linecap="round"/>
<path d="M96.269 17.7019L82.0441 22.9839L77.097 36.8729" stroke="#ABDAFF" stroke-width="5.42" stroke-miterlimit="10" stroke-linecap="round"/>
<path d="M71.551 50.4989L85.776 45.2159L90.723 31.3269" stroke="white" stroke-width="5.42" stroke-miterlimit="10" stroke-linecap="round"/>
<path d="M113.846 56.3459L100.052 50.0229L86.734 56.3459" stroke="#ABDAFF" stroke-width="5.42" stroke-miterlimit="10" stroke-linecap="round"/>
<path d="M73.177 62.0588L86.971 68.3828L100.29 62.0588" stroke="white" stroke-width="5.42" stroke-miterlimit="10" stroke-linecap="round"/>
<path d="M98.9491 96.1009L93.6671 81.8759L79.7781 76.9299" stroke="#ABDAFF" stroke-width="5.42" stroke-miterlimit="10" stroke-linecap="round"/>
<path d="M66.1531 71.384L71.4351 85.609L85.3241 90.555" stroke="white" stroke-width="5.42" stroke-miterlimit="10" stroke-linecap="round"/>
<path d="M60.3051 113.679L66.6281 99.8849L60.3051 86.5659" stroke="#ABDAFF" stroke-width="5.42" stroke-miterlimit="10" stroke-linecap="round"/>
<path d="M54.592 73.01L48.269 86.804L54.592 100.122" stroke="white" stroke-width="5.42" stroke-miterlimit="10" stroke-linecap="round"/>
<path d="M20.55 98.7819L34.775 93.4989L39.721 79.6099" stroke="#ABDAFF" stroke-width="5.42" stroke-miterlimit="10" stroke-linecap="round"/>
<path d="M45.2681 65.9849L31.0421 71.2679L26.0961 85.1559" stroke="white" stroke-width="5.42" stroke-miterlimit="10" stroke-linecap="round"/>
<path d="M2.97302 60.137L16.767 66.461L30.085 60.137" stroke="#ABDAFF" stroke-width="5.42" stroke-miterlimit="10" stroke-linecap="round"/>
<path d="M43.6421 54.4238L29.8471 48.1008L16.5291 54.4238" stroke="white" stroke-width="5.42" stroke-miterlimit="10" stroke-linecap="round"/>
<path d="M17.869 20.3818L23.152 34.6078L37.041 39.5538" stroke="#ABDAFF" stroke-width="5.42" stroke-miterlimit="10" stroke-linecap="round"/>
<path d="M50.666 45.1L45.384 30.875L31.495 25.929" stroke="white" stroke-width="5.42" stroke-miterlimit="10" stroke-linecap="round"/>
</svg>
