<svg width="30" height="24" viewBox="0 0 20 16" fill="none" xmlns="http://www.w3.org/2000/svg">
<path d="M18.258 0.135916L1.42035 6.63225C0.269549 7.09848 0.284149 7.73924 1.21661 8.01599L5.53324 9.36783L7.01343 14.2502C7.21717 14.7891 7.1153 15.0074 7.6834 15.0074C8.12043 15.0074 8.30957 14.8037 8.55746 14.5704C8.71366 14.4203 9.63254 13.5272 10.6584 12.5296L15.0246 15.7501C15.8256 16.1871 16.4083 15.9684 16.6121 15.0071L19.4815 1.49047C19.7728 0.3108 19.0298 -0.213502 18.258 0.135916Z" fill="#C8DAEA"/>
<path d="M7.68335 15.0074C8.12038 15.0074 8.30952 14.8037 8.55741 14.5704C8.74723 14.3863 10.6431 12.5445 10.6431 12.5445L7.93973 10.5505L7.68335 14.8621V15.0074Z" fill="#A9C9DD"/>
<path d="M7.93947 10.5501L14.989 15.7499C15.79 16.187 16.3727 15.9683 16.5768 15.007L19.4462 1.49036C19.7375 0.310688 18.9945 -0.213954 18.2227 0.135804L1.38507 6.63214C0.234265 7.09837 0.248875 7.73913 1.18134 8.01588L5.50712 9.37043L15.5136 3.06359C15.9798 2.77223 16.4165 2.93251 16.0671 3.25306L7.93947 10.5501Z" fill="url(#paint0_linear_927_396)"/>
<defs>
<linearGradient id="paint0_linear_927_396" x1="12.1647" y1="7.54179" x2="15.8062" y2="13.3679" gradientUnits="userSpaceOnUse">
<stop stop-color="#EFF7FC"/>
<stop offset="1" stop-color="white"/>
</linearGradient>
</defs>
</svg>
