<svg width="196" height="58" viewBox="0 0 196 58" fill="none" xmlns="http://www.w3.org/2000/svg">
<path d="M26.157 25.772C28.1734 25.772 29.808 24.1374 29.808 22.121C29.808 20.1046 28.1734 18.47 26.157 18.47C24.1406 18.47 22.506 20.1046 22.506 22.121C22.506 24.1374 24.1406 25.772 26.157 25.772Z" fill="#6DD9B6"/>
<path d="M29.808 35.6989C29.808 37.7149 28.174 39.3499 26.157 39.3499C24.141 39.3499 22.506 37.7159 22.506 35.6989C22.506 33.6829 24.14 32.0479 26.157 32.0479C28.174 32.0479 29.808 33.6829 29.808 35.6989Z" fill="#6DD9B6"/>
<path d="M83.028 57.82H3.39197C1.74697 57.82 0.412964 56.486 0.412964 54.841V2.979C0.412964 1.334 1.74697 0 3.39197 0H83.028C84.673 0 86.007 1.334 86.007 2.979V54.841C86.007 56.486 84.673 57.82 83.028 57.82ZM6.36996 51.862H80.049V5.95801H6.36996V51.862Z" fill="#6DD9B6"/>
<path d="M47.6389 44.9579C47.2849 44.9579 46.925 44.8939 46.574 44.7599C45.038 44.1709 44.2689 42.4489 44.8579 40.9119L54.8689 14.7759C55.4579 13.2399 57.1799 12.4709 58.7169 13.0599C60.2529 13.6479 61.0219 15.3709 60.4329 16.9079L50.422 43.0439C49.967 44.2289 48.8379 44.9579 47.6389 44.9579Z" fill="#6DD9B6"/>
<path d="M35.123 44.9579C34.769 44.9579 34.409 44.8939 34.058 44.7599C32.522 44.1709 31.753 42.4489 32.342 40.9119L42.353 14.7759C42.941 13.2399 44.664 12.4709 46.2 13.0599C47.736 13.6479 48.505 15.3709 47.916 16.9079L37.905 43.0439C37.451 44.2289 36.321 44.9579 35.123 44.9579Z" fill="#6DD9B6"/>
<path d="M107.24 20.4545L113.108 38.2003H113.339L119.195 20.4545H123.687L115.739 43H110.697L102.76 20.4545H107.24ZM137.258 35.8885V26.0909H141.243V43H137.379V39.9947H137.203C136.821 40.9414 136.193 41.7157 135.32 42.3175C134.454 42.9193 133.386 43.2202 132.117 43.2202C131.008 43.2202 130.029 42.9743 129.177 42.4826C128.333 41.9835 127.673 41.2607 127.196 40.3139C126.719 39.3598 126.48 38.2076 126.48 36.8572V26.0909H130.465V36.2408C130.465 37.3123 130.759 38.1636 131.346 38.7947C131.933 39.4259 132.704 39.7415 133.658 39.7415C134.245 39.7415 134.814 39.5984 135.364 39.3121C135.915 39.0259 136.366 38.6003 136.718 38.0352C137.078 37.4627 137.258 36.7472 137.258 35.8885ZM152.826 43.3303C151.131 43.3303 149.667 42.978 148.434 42.2734C147.208 41.5616 146.265 40.5561 145.605 39.2571C144.944 37.9508 144.614 36.4132 144.614 34.6445C144.614 32.9052 144.944 31.3787 145.605 30.065C146.273 28.744 147.205 27.7165 148.401 26.9826C149.597 26.2414 151.003 25.8707 152.617 25.8707C153.659 25.8707 154.643 26.0395 155.567 26.3771C156.5 26.7074 157.321 27.2211 158.033 27.9183C158.753 28.6155 159.318 29.5036 159.729 30.5824C160.14 31.6539 160.345 32.9309 160.345 34.4134V35.6353H146.485V32.9492H156.525C156.518 32.186 156.353 31.5071 156.03 30.9126C155.707 30.3108 155.256 29.8375 154.676 29.4925C154.103 29.1476 153.435 28.9751 152.672 28.9751C151.858 28.9751 151.142 29.1733 150.526 29.5696C149.909 29.9586 149.428 30.4723 149.083 31.1108C148.746 31.742 148.573 32.4355 148.566 33.1914V35.5362C148.566 36.5196 148.746 37.3636 149.105 38.0682C149.465 38.7654 149.968 39.3011 150.614 39.6754C151.259 40.0424 152.015 40.2259 152.881 40.2259C153.461 40.2259 153.986 40.1451 154.456 39.9837C154.925 39.8149 155.333 39.569 155.678 39.2461C156.022 38.9232 156.283 38.5232 156.459 38.0462L160.18 38.4645C159.945 39.4479 159.498 40.3066 158.837 41.0405C158.184 41.767 157.347 42.3321 156.327 42.7358C155.307 43.1321 154.14 43.3303 152.826 43.3303ZM166.171 43.2422C165.504 43.2422 164.931 43.0073 164.454 42.5376C163.977 42.0679 163.742 41.4955 163.75 40.8203C163.742 40.1598 163.977 39.5947 164.454 39.125C164.931 38.6553 165.504 38.4205 166.171 38.4205C166.817 38.4205 167.379 38.6553 167.856 39.125C168.34 39.5947 168.586 40.1598 168.593 40.8203C168.586 41.268 168.469 41.6753 168.241 42.0423C168.021 42.4092 167.727 42.7028 167.36 42.9229C167.001 43.1358 166.604 43.2422 166.171 43.2422ZM172.708 26.0909H176.693V43.9688C176.693 45.187 176.462 46.1925 175.999 46.9851C175.537 47.7777 174.869 48.3685 173.996 48.7575C173.122 49.1464 172.062 49.3409 170.814 49.3409C170.667 49.3409 170.532 49.3372 170.407 49.3299C170.282 49.3299 170.146 49.3262 170 49.3189V46.0714C170.11 46.0787 170.209 46.0824 170.297 46.0824C170.385 46.0897 170.477 46.0934 170.572 46.0934C171.335 46.0934 171.882 45.9063 172.212 45.532C172.543 45.165 172.708 44.6256 172.708 43.9137V26.0909ZM174.689 23.6911C174.051 23.6911 173.504 23.4819 173.049 23.0636C172.601 22.6379 172.377 22.1278 172.377 21.5334C172.377 20.9316 172.601 20.4215 173.049 20.0032C173.504 19.5775 174.051 19.3647 174.689 19.3647C175.32 19.3647 175.86 19.5775 176.308 20.0032C176.763 20.4215 176.99 20.9316 176.99 21.5334C176.99 22.1278 176.763 22.6379 176.308 23.0636C175.86 23.4819 175.32 23.6911 174.689 23.6911ZM194.155 30.5604L190.522 30.9567C190.42 30.5897 190.24 30.2448 189.983 29.9219C189.733 29.599 189.396 29.3384 188.97 29.1403C188.544 28.9421 188.023 28.843 187.407 28.843C186.578 28.843 185.88 29.0228 185.315 29.3825C184.757 29.7421 184.482 30.2081 184.49 30.7805C184.482 31.2723 184.662 31.6722 185.029 31.9805C185.403 32.2887 186.02 32.5419 186.878 32.7401L189.763 33.3565C191.363 33.7015 192.552 34.2482 193.329 34.9968C194.115 35.7454 194.511 36.7251 194.518 37.9361C194.511 39.0002 194.199 39.9396 193.583 40.7543C192.974 41.5616 192.126 42.1927 191.04 42.6477C189.954 43.1027 188.706 43.3303 187.297 43.3303C185.227 43.3303 183.561 42.8973 182.299 42.0312C181.037 41.1579 180.284 39.9433 180.042 38.3874L183.928 38.0131C184.104 38.7764 184.479 39.3525 185.051 39.7415C185.623 40.1304 186.368 40.3249 187.286 40.3249C188.233 40.3249 188.992 40.1304 189.565 39.7415C190.144 39.3525 190.434 38.8718 190.434 38.2994C190.434 37.815 190.247 37.415 189.873 37.0994C189.506 36.7839 188.933 36.5417 188.155 36.3729L185.271 35.7674C183.649 35.4298 182.449 34.861 181.671 34.0611C180.893 33.2538 180.508 32.2337 180.516 31.0007C180.508 29.9586 180.791 29.0559 181.363 28.2926C181.943 27.522 182.747 26.9276 183.774 26.5092C184.809 26.0836 186.001 25.8707 187.352 25.8707C189.333 25.8707 190.893 26.2927 192.03 27.1367C193.175 27.9807 193.884 29.1219 194.155 30.5604Z" fill="#6DD9B6"/>
</svg>
