<svg width="30" height="30" viewBox="0 0 49 49" fill="none" xmlns="http://www.w3.org/2000/svg">
<path d="M0.686798 48.4958L3.9848 36.1878C1.7688 32.5008 0.601807 28.2948 0.601807 23.9748C0.601807 10.8748 11.2598 0.216797 24.3598 0.216797C37.4598 0.216797 48.1178 10.8748 48.1178 23.9748C48.1178 37.0748 37.4598 47.7328 24.3598 47.7328C20.5618 47.7328 16.8038 46.8168 13.4458 45.0768L0.686798 48.4958ZM13.8788 41.4468L14.4788 41.7808C17.4878 43.4548 20.9038 44.3388 24.3588 44.3388C35.5868 44.3388 44.7228 35.2038 44.7228 23.9748C44.7228 12.7468 35.5878 3.61079 24.3588 3.61079C13.1298 3.61079 3.99481 12.7458 3.99481 23.9748C3.99481 27.8958 5.11681 31.7068 7.23981 34.9958L7.6478 35.6288L5.48581 43.6968L13.8788 41.4468Z" fill="white"/>
<path d="M31.9408 27.6188C31.0708 27.0728 29.9178 27.2528 29.3268 28.0738C28.9448 28.6148 28.5638 29.1558 28.1818 29.6968C24.4898 27.0918 21.2708 23.8728 18.6658 20.1808C19.2068 19.7988 19.7478 19.4178 20.2888 19.0358C21.1098 18.4448 21.2898 17.2918 20.7438 16.4218C20.0098 15.2558 19.3398 14.0428 18.7408 12.7888C18.2938 11.8548 17.2168 11.3788 16.2788 11.7558C15.5438 12.0598 14.8088 12.3648 14.0738 12.6688C12.0988 13.4368 11.3158 16.1448 12.6328 18.5298C16.6258 25.7698 22.5908 31.7348 29.8308 35.7278C32.2158 37.0458 34.9238 36.2618 35.6918 34.2868C35.9968 33.5518 36.3008 32.8168 36.6048 32.0818C36.9828 31.1438 36.5058 30.0668 35.5728 29.6198C34.3198 29.0228 33.1068 28.3538 31.9408 27.6188Z" fill="white"/>
</svg>
