<svg width="59" height="43" viewBox="0 0 59 43" fill="none" xmlns="http://www.w3.org/2000/svg">
<g clip-path="url(#clip0_217_395)">
<g opacity="0.1">
<path d="M30.1875 30.6864H30.8787H30.8889H31.5746H31.5801H32.2658H56.5046C57.6147 30.6864 58.5154 29.7936 58.5154 28.6917V18.3914C58.5154 17.2902 57.6153 16.3973 56.5046 16.3973H32.6782H31.9925H31.987H31.3013H31.2911H30.5999L39.987 7.08542C41.2537 5.82887 40.3566 3.68066 38.5649 3.68066L23.9028 3.68305C23.37 3.68305 22.8589 3.89328 22.482 4.26714L4.25766 22.3361C3.472 23.1149 3.47199 24.378 4.25705 25.1568L13.0986 33.9276L13.4966 34.3223L13.5068 34.3325L13.9048 34.7272L13.9156 34.7374L14.3135 35.1322L21.5573 42.3179C21.9342 42.6918 22.4459 42.902 22.9787 42.902H37.648C39.4391 42.902 40.3361 40.7538 39.0695 39.4973" fill="black"/>
</g>
<path d="M20.0883 20.6681L35.8864 36.3398C37.1531 37.5964 36.2561 39.7446 34.465 39.7446H19.7951C19.2617 39.7446 18.7505 39.5343 18.3737 39.1605L9.91559 30.7701L17.3845 23.3508L20.0883 20.6681Z" fill="#4B72A1"/>
<path d="M20.7193 0.524973L35.3814 0.522583C37.1724 0.522583 38.0701 2.67079 36.8034 3.92735L27.4164 13.2392L20.0077 20.5887L20.0883 20.6687L9.91504 30.7701L1.07346 21.9993C0.288403 21.2205 0.288398 19.9574 1.07406 19.1786L19.2984 1.10906C19.6753 0.734597 20.1865 0.524973 20.7193 0.524973Z" fill="#4B72A1"/>
<path d="M27.4164 13.2392H53.3215C54.4317 13.2392 55.3318 14.132 55.3318 15.2339V25.5348C55.3318 26.6361 54.4317 27.5289 53.3215 27.5289H27.0045L20.0082 20.5886L27.4164 13.2392Z" fill="#4B72A1"/>
<g opacity="0.5">
<g opacity="0.2">
<path d="M20.7096 20.5886L27.7059 27.5289H28.3971L21.4007 20.5886L28.8089 13.2392H28.1177L20.7096 20.5886Z" fill="black"/>
</g>
<g opacity="0.3">
<path d="M20.0076 20.5886L27.0045 27.5289H27.6957L20.6988 20.5886L28.1075 13.2392H27.4163L20.0076 20.5886Z" fill="black"/>
</g>
<g opacity="0.1">
<path d="M21.3953 20.5886L28.3916 27.5289H29.0828L22.0865 20.5886L29.4952 13.2392H28.804L21.3953 20.5886Z" fill="black"/>
</g>
</g>
<g opacity="0.3">
<g opacity="0.3">
<path d="M20.4863 21.0629L20.0883 20.6681L17.384 23.3508L9.91504 30.7695L10.313 31.1643L20.4863 21.0629Z" fill="black"/>
</g>
<g opacity="0.2">
<path d="M20.8945 21.4678L20.4965 21.073L17.7928 23.7557L10.3239 31.175L10.7218 31.5698L20.8945 21.4678Z" fill="black"/>
</g>
<g opacity="0.1">
<path d="M21.3032 21.8733L20.9053 21.4785L18.2009 24.1606L10.732 31.5799L11.1299 31.9747L21.3032 21.8733Z" fill="black"/>
</g>
</g>
</g>
<defs>
<clipPath id="clip0_217_395">
<rect width="59" height="43" fill="white"/>
</clipPath>
</defs>
</svg>
